<svg xmlns:svg="http://www.w3.org/2000/svg" 
   xmlns="http://www.w3.org/2000/svg" 
   xmlns:sodipodi="http://sodipodi.sourceforge.net/DTD/sodipodi-0.dtd" 
   xmlns:inkscape="http://www.inkscape.org/namespaces/inkscape" width="1159" height="261" viewBox="0 0 1159 261" version="1.1" id="svg890" sodipodi:docname="logoH.svg" inkscape:version="0.92.4 (5da689c313, 2019-01-14)">
   <g id="g4781" style="fill:#008000">
      <!-- | | -->
      <path id="path4719" d="M 341.83789 194.59375 L 341.83789 245.75391 L 348.84766 245.75391 L 348.84766 194.59375 L 341.83789 194.59375 z " style="font-style:normal;font-variant:normal;font-weight:normal;font-stretch:normal;font-size:55px;line-height:1.25;font-family:Audiowide;-inkscape-font-specification:Audiowide;letter-spacing:0px;word-spacing:0px;fill:#fb4e2e;fill-opacity:1;stroke:none" />
      <path d="m 751.12714,245.7538 h -7.00928 v -51.15967 h 7.00928 z" style="font-style:normal;font-variant:normal;font-weight:normal;font-stretch:normal;font-size:55px;line-height:1.25;font-family:Audiowide;-inkscape-font-specification:Audiowide;letter-spacing:0px;word-spacing:0px;fill:#fb4e2e;fill-opacity:1;stroke:none" id="path4747" inkscape:connector-curvature="0" />
   </g>
   <g id="g4777" style="fill:#f2f3f7">
      <!-- people process product -->
      <path id="path4699" d="M 139.39648 200.38086 C 137.08691 200.38086 134.94792 200.78418 132.97852 201.58984 C 131.00912 202.39551 129.30729 203.51498 127.875 204.94727 C 126.44271 206.36166 125.31575 208.06153 124.49219 210.04883 C 123.68653 212.01823 123.2832 214.16667 123.2832 216.49414 L 123.2832 223.85352 C 123.2832 226.1989 123.68653 228.35677 124.49219 230.32617 C 125.31575 232.29557 126.44271 233.99544 127.875 235.42773 C 129.30729 236.86003 131.00912 237.97949 132.97852 238.78516 C 134.94792 239.57292 137.08691 239.9668 139.39648 239.9668 L 148.84961 239.9668 C 151.15918 239.9668 153.29069 239.57292 155.24219 238.78516 C 157.21159 237.97949 158.91146 236.86003 160.34375 235.42773 C 161.77604 233.99544 162.89551 232.29557 163.70117 230.32617 C 164.50683 228.35677 164.91016 226.1989 164.91016 223.85352 L 164.91016 216.49414 C 164.91016 214.16667 164.50683 212.01823 163.70117 210.04883 C 162.89551 208.06153 161.77604 206.36166 160.34375 204.94727 C 158.91146 203.51498 157.21159 202.39551 155.24219 201.58984 C 153.29069 200.78418 151.15918 200.38086 148.84961 200.38086 L 139.39648 200.38086 z M 48.652344 200.91797 C 47.685546 200.91797 46.628255 201.097 45.482422 201.45508 C 44.336589 201.79525 43.27181 202.35124 42.287109 203.12109 C 41.320313 203.89095 40.506185 204.903 39.84375 206.15625 C 39.199219 207.4095 38.876953 208.93034 38.876953 210.7207 L 38.876953 239.42969 L 45.859375 239.42969 L 45.859375 210.7207 C 45.859375 209.80762 46.100586 209.11035 46.583984 208.62695 C 47.067383 208.14356 47.774089 207.90039 48.705078 207.90039 L 64.443359 207.90039 C 65.356445 207.90039 66.161133 208.05306 66.859375 208.35742 C 67.557618 208.64388 68.149414 209.0472 68.632812 209.56641 C 69.134115 210.08561 69.527994 210.71126 69.814453 211.44531 C 70.100911 212.17936 70.289388 212.986 70.378906 213.86328 L 70.378906 217.03125 C 70.378906 217.92643 70.235677 218.73307 69.949219 219.44922 C 69.662761 220.14746 69.25944 220.74675 68.740234 221.24805 C 68.221029 221.74935 67.593425 222.15267 66.859375 222.45703 C 66.14323 222.74349 65.338542 222.92253 64.443359 222.99414 L 48.652344 222.99414 L 48.652344 229.97656 L 64.443359 229.97656 C 65.302735 229.97656 66.214844 229.87858 67.181641 229.68164 C 68.166341 229.4847 69.133138 229.16992 70.082031 228.74023 C 71.048828 228.31055 71.972331 227.75651 72.849609 227.07617 C 73.726888 226.39583 74.495768 225.58171 75.158203 224.63281 C 75.838542 223.66602 76.375651 222.55599 76.769531 221.30273 C 77.163412 220.04947 77.361328 218.62467 77.361328 217.03125 L 77.361328 213.86328 C 77.361328 213.00391 77.261394 212.08985 77.064453 211.12305 C 76.867513 210.13835 76.545247 209.17155 76.097656 208.22266 C 75.667968 207.25586 75.113932 206.33431 74.433594 205.45703 C 73.771158 204.57975 72.957031 203.81087 71.990234 203.14844 C 71.041341 202.4681 69.938802 201.93099 68.685547 201.53711 C 67.432292 201.12532 66.01888 200.91797 64.443359 200.91797 L 48.652344 200.91797 z M 86.707031 200.91797 C 86.205729 200.91797 85.740235 201.00846 85.310547 201.1875 C 84.88086 201.36653 84.503906 201.61719 84.181641 201.93945 C 83.877279 202.26172 83.636068 202.63672 83.457031 203.06641 C 83.277995 203.49609 83.1875 203.9541 83.1875 204.4375 L 83.1875 229.62695 C 83.1875 231.43522 83.509766 232.96549 84.154297 234.21875 C 84.816732 235.4541 85.632813 236.46615 86.599609 237.25391 C 87.58431 238.02377 88.649089 238.57976 89.794922 238.91992 C 90.940755 239.2601 91.996094 239.42969 92.962891 239.42969 L 118.1543 239.42969 L 118.1543 232.44727 L 93.017578 232.44727 C 92.086589 232.44727 91.379883 232.20605 90.896484 231.72266 C 90.413086 231.23926 90.169922 230.54004 90.169922 229.62695 L 90.169922 207.90039 L 118.1543 207.90039 L 118.1543 200.91797 L 86.707031 200.91797 z M 181.5332 200.91797 C 180.5664 200.91797 179.50911 201.097 178.36328 201.45508 C 177.21745 201.79525 176.15267 202.35124 175.16797 203.12109 C 174.20118 203.89095 173.38705 204.903 172.72461 206.15625 C 172.08008 207.4095 171.75781 208.93034 171.75781 210.7207 L 171.75781 239.42969 L 178.74023 239.42969 L 178.74023 210.7207 C 178.74023 209.80762 178.98144 209.11035 179.46484 208.62695 C 179.94824 208.14356 180.65494 207.90039 181.58594 207.90039 L 197.32422 207.90039 C 198.23731 207.90039 199.04199 208.05306 199.74023 208.35742 C 200.43848 208.64388 201.03027 209.0472 201.51367 209.56641 C 202.01497 210.08561 202.40885 210.71126 202.69531 211.44531 C 202.98177 212.17936 203.17025 212.986 203.25977 213.86328 L 203.25977 217.03125 C 203.25977 217.92643 203.11654 218.73307 202.83008 219.44922 C 202.54362 220.14746 202.1403 220.74675 201.62109 221.24805 C 201.10189 221.74935 200.47429 222.15267 199.74023 222.45703 C 199.02409 222.74349 198.21941 222.92253 197.32422 222.99414 L 181.5332 222.99414 L 181.5332 229.97656 L 197.32422 229.97656 C 198.1836 229.97656 199.09571 229.87858 200.0625 229.68164 C 201.0472 229.4847 202.014 229.16992 202.96289 228.74023 C 203.92969 228.31055 204.8532 227.75651 205.73047 227.07617 C 206.60775 226.39583 207.37663 225.58171 208.03906 224.63281 C 208.7194 223.66602 209.25651 222.55599 209.65039 221.30273 C 210.04427 220.04947 210.24219 218.62467 210.24219 217.03125 L 210.24219 213.86328 C 210.24219 213.00391 210.14225 212.08985 209.94531 211.12305 C 209.74837 210.13835 209.4261 209.17155 208.97852 208.22266 C 208.54882 207.25586 207.99479 206.33431 207.31445 205.45703 C 206.65201 204.57975 205.83789 203.81087 204.87109 203.14844 C 203.9222 202.4681 202.81966 201.93099 201.56641 201.53711 C 200.31315 201.12532 198.89974 200.91797 197.32422 200.91797 L 181.5332 200.91797 z M 216.23047 200.91797 L 216.23047 235.91211 C 216.23047 236.41341 216.31901 236.87891 216.49805 237.30859 C 216.67708 237.73829 216.92025 238.11329 217.22461 238.43555 C 217.54688 238.73991 217.92188 238.98112 218.35156 239.16016 C 218.78126 239.3392 219.24675 239.42969 219.74805 239.42969 L 251.59961 239.42969 L 251.59961 232.44727 L 223.21289 232.44727 L 223.21289 200.91797 L 216.23047 200.91797 z M 259.97852 200.91797 C 259.47722 200.91797 259.01172 201.00846 258.58203 201.1875 C 258.15234 201.36653 257.77539 201.61719 257.45312 201.93945 C 257.14876 202.26172 256.90755 202.63672 256.72852 203.06641 C 256.54948 203.49609 256.45898 203.9541 256.45898 204.4375 L 256.45898 229.62695 C 256.45898 231.43522 256.78125 232.96549 257.42578 234.21875 C 258.08821 235.4541 258.90429 236.46615 259.87109 237.25391 C 260.85579 238.02377 261.92057 238.57976 263.06641 238.91992 C 264.21224 239.2601 265.26758 239.42969 266.23438 239.42969 L 291.42578 239.42969 L 291.42578 232.44727 L 266.28906 232.44727 C 265.35807 232.44727 264.65137 232.20605 264.16797 231.72266 C 263.68458 231.23926 263.44141 230.54004 263.44141 229.62695 L 263.44141 207.90039 L 291.42578 207.90039 L 291.42578 200.91797 L 259.97852 200.91797 z M 139.39648 207.36328 L 148.84961 207.36328 C 150.19238 207.36328 151.41927 207.58757 152.5293 208.03516 C 153.65723 208.46484 154.61458 209.08301 155.40234 209.88867 C 156.208 210.67643 156.82617 211.63379 157.25586 212.76172 C 157.70345 213.87175 157.92773 215.11556 157.92773 216.49414 L 157.92773 223.85352 C 157.92773 225.2321 157.70345 226.48535 157.25586 227.61328 C 156.82617 228.72331 156.208 229.68066 155.40234 230.48633 C 154.59668 231.27409 153.62988 231.89226 152.50195 232.33984 C 151.39193 232.76953 150.15756 232.98438 148.79688 232.98438 L 139.39648 232.98438 C 138.0358 232.98438 136.79199 232.76953 135.66406 232.33984 C 134.55404 231.89226 133.59668 231.27409 132.79102 230.48633 C 131.98536 229.68066 131.35775 228.72331 130.91016 227.61328 C 130.48047 226.48535 130.26562 225.2321 130.26562 223.85352 L 130.26562 216.49414 C 130.26563 215.11556 130.48047 213.87175 130.91016 212.76172 C 131.35775 211.63379 131.98536 210.67643 132.79102 209.88867 C 133.59668 209.08301 134.55404 208.46484 135.66406 208.03516 C 136.79199 207.58757 138.0358 207.36328 139.39648 207.36328 z M 92.962891 216.65625 L 92.962891 223.69141 L 115.01172 223.69141 L 115.01172 216.65625 L 92.962891 216.65625 z M 266.23438 216.65625 L 266.23438 223.69141 L 288.2832 223.69141 L 288.2832 216.65625 L 266.23438 216.65625 z " style="font-size:55px;font-family:Audiowide-Regular, Audiowide;fill:#f2f3f7" />
      <path id="path4724" d="M 501.47266 200.38086 C 499.16309 200.38086 497.02409 200.78418 495.05469 201.58984 C 493.08529 202.39551 491.38542 203.51498 489.95312 204.94727 C 488.52083 206.36166 487.39193 208.06153 486.56836 210.04883 C 485.76269 212.01823 485.35938 214.16667 485.35938 216.49414 L 485.35938 223.85352 C 485.35937 226.1989 485.76269 228.35677 486.56836 230.32617 C 487.39193 232.29557 488.52083 233.99544 489.95312 235.42773 C 491.38542 236.86003 493.08529 237.97949 495.05469 238.78516 C 497.02409 239.57292 499.16309 239.9668 501.47266 239.9668 L 510.92578 239.9668 C 513.23535 239.9668 515.36686 239.57292 517.31836 238.78516 C 519.28776 237.97949 520.98763 236.86003 522.41992 235.42773 C 523.85222 233.99544 524.97168 232.29557 525.77734 230.32617 C 526.58301 228.35677 526.98633 226.1989 526.98633 223.85352 L 526.98633 216.49414 C 526.98633 214.16667 526.58301 212.01823 525.77734 210.04883 C 524.97168 208.06153 523.85222 206.36166 522.41992 204.94727 C 520.98763 203.51498 519.28776 202.39551 517.31836 201.58984 C 515.36686 200.78418 513.23535 200.38086 510.92578 200.38086 L 501.47266 200.38086 z M 406.32422 200.91797 C 405.35742 200.91797 404.30013 201.097 403.1543 201.45508 C 402.00846 201.79525 400.94368 202.35124 399.95898 203.12109 C 398.99219 203.89095 398.17807 204.903 397.51562 206.15625 C 396.8711 207.4095 396.54883 208.93034 396.54883 210.7207 L 396.54883 239.42969 L 403.53125 239.42969 L 403.53125 210.7207 C 403.53125 209.80762 403.77246 209.11035 404.25586 208.62695 C 404.73926 208.14356 405.44792 207.90039 406.37891 207.90039 L 422.11523 207.90039 C 423.02832 207.90039 423.83496 208.05306 424.5332 208.35742 C 425.23144 208.64388 425.82129 209.0472 426.30469 209.56641 C 426.80599 210.08561 427.19987 210.71126 427.48633 211.44531 C 427.77279 212.17936 427.96127 212.986 428.05078 213.86328 L 428.05078 217.03125 C 428.05078 217.92643 427.90755 218.73307 427.62109 219.44922 C 427.33463 220.14746 426.93132 220.74675 426.41211 221.24805 C 425.8929 221.74935 425.26725 222.15267 424.5332 222.45703 C 423.81706 222.74349 423.01042 222.92253 422.11523 222.99414 L 406.32422 222.99414 L 406.32422 229.97656 L 422.11523 229.97656 C 422.97461 229.97656 423.88672 229.87858 424.85352 229.68164 C 425.83822 229.4847 426.80501 229.16992 427.75391 228.74023 C 428.72071 228.31055 429.6442 227.75651 430.52148 227.07617 C 431.39876 226.39583 432.16764 225.58171 432.83008 224.63281 C 433.51041 223.66602 434.04753 222.55599 434.44141 221.30273 C 434.83529 220.04947 435.0332 218.62467 435.0332 217.03125 L 435.0332 213.86328 C 435.0332 213.00391 434.93327 212.08985 434.73633 211.12305 C 434.53939 210.13835 434.21907 209.17155 433.77148 208.22266 C 433.3418 207.25586 432.78581 206.33431 432.10547 205.45703 C 431.44304 204.57975 430.62891 203.81087 429.66211 203.14844 C 428.71322 202.4681 427.61263 201.93099 426.35938 201.53711 C 425.10612 201.12532 423.69076 200.91797 422.11523 200.91797 L 406.32422 200.91797 z M 444.53906 200.91797 C 444.03776 200.91797 443.57226 201.00846 443.14258 201.1875 C 442.71289 201.36653 442.33789 201.61719 442.01562 201.93945 C 441.71126 202.26172 441.47005 202.63672 441.29102 203.06641 C 441.11198 203.49609 441.02148 203.9541 441.02148 204.4375 L 441.02148 239.42969 L 448.00391 239.42969 L 448.00391 207.90039 L 471.04688 207.90039 C 471.1901 207.90039 471.34082 207.9098 471.50195 207.92773 C 471.68099 207.94564 471.8431 208.00781 471.98633 208.11523 C 472.14746 208.20475 472.27181 208.35743 472.36133 208.57227 C 472.46875 208.76921 472.52344 209.0651 472.52344 209.45898 L 472.52344 213.86328 C 472.52344 214.77637 472.38021 215.59049 472.09375 216.30664 C 471.80729 217.00488 471.39453 217.60417 470.85742 218.10547 C 470.33822 218.60678 469.71256 219.01009 468.97852 219.31445 C 468.26237 219.60091 467.46517 219.77995 466.58789 219.85156 L 450.79688 219.85156 L 450.79688 226.83398 L 455.81836 226.83398 L 470.375 239.42969 L 481.16992 239.42969 L 466.58789 226.83398 C 467.44726 226.83398 468.36133 226.736 469.32812 226.53906 C 470.31283 226.34212 471.27962 226.0293 472.22852 225.59961 C 473.19531 225.15202 474.11686 224.58658 474.99414 223.90625 C 475.87142 223.22591 476.6403 222.41178 477.30273 221.46289 C 477.98307 220.49609 478.52018 219.38607 478.91406 218.13281 C 479.30794 216.87956 479.50586 215.45671 479.50586 213.86328 L 479.50586 209.4043 C 479.50586 208.54492 479.35319 207.62337 479.04883 206.63867 C 478.76237 205.65397 478.278 204.74186 477.59766 203.90039 C 476.93522 203.04102 476.06836 202.33236 474.99414 201.77734 C 473.91992 201.20442 472.60449 200.91797 471.04688 200.91797 L 444.53906 200.91797 z M 543.23438 200.91797 C 542.03483 200.91797 540.95866 201.07063 540.00977 201.375 C 539.06087 201.67936 538.22037 202.09212 537.48633 202.61133 C 536.77018 203.11263 536.15202 203.69304 535.63281 204.35547 C 535.11361 205.01791 534.69336 205.71713 534.37109 206.45117 C 534.04883 207.16732 533.80762 207.90039 533.64648 208.65234 C 533.50325 209.38639 533.43164 210.07617 533.43164 210.7207 L 533.43164 229.62695 C 533.43164 230.8265 533.58431 231.91016 533.88867 232.87695 C 534.19303 233.82585 534.5944 234.66634 535.0957 235.40039 C 535.61491 236.11653 536.20671 236.7347 536.86914 237.25391 C 537.53157 237.75521 538.2194 238.16797 538.93555 238.49023 C 539.6696 238.81249 540.40463 239.05371 541.13867 239.21484 C 541.89063 239.35808 542.58984 239.42969 543.23438 239.42969 L 568.42383 239.42969 L 568.42383 232.44727 L 543.23438 232.44727 C 542.33919 232.44727 541.63997 232.20605 541.13867 231.72266 C 540.65527 231.22135 540.41406 230.52213 540.41406 229.62695 L 540.41406 210.77539 C 540.41406 209.8265 540.65527 209.11035 541.13867 208.62695 C 541.62207 208.14356 542.32129 207.90039 543.23438 207.90039 L 568.42383 207.90039 L 568.42383 200.91797 L 543.23438 200.91797 z M 578.44141 200.91797 C 577.9401 200.91797 577.47461 201.00846 577.04492 201.1875 C 576.61524 201.36653 576.23828 201.61719 575.91602 201.93945 C 575.61166 202.26172 575.37044 202.63672 575.19141 203.06641 C 575.01237 203.49609 574.92188 203.9541 574.92188 204.4375 L 574.92188 229.62695 C 574.92187 231.43522 575.24609 232.96549 575.89062 234.21875 C 576.55306 235.4541 577.36718 236.46615 578.33398 237.25391 C 579.31868 238.02377 580.38346 238.57976 581.5293 238.91992 C 582.67513 239.2601 583.73047 239.42969 584.69727 239.42969 L 609.88867 239.42969 L 609.88867 232.44727 L 584.75195 232.44727 C 583.82097 232.44727 583.11426 232.20605 582.63086 231.72266 C 582.14746 231.23926 581.9043 230.54004 581.9043 229.62695 L 581.9043 207.90039 L 609.88867 207.90039 L 609.88867 200.91797 L 578.44141 200.91797 z M 626.27148 200.91797 C 625.14355 200.91797 623.92415 201.12532 622.61719 201.53711 C 621.31022 201.93099 620.09277 202.58301 618.96484 203.49609 C 617.85482 204.39127 616.92383 205.56542 616.17188 207.01562 C 615.43783 208.44791 615.07227 210.20996 615.07227 212.30469 C 615.07227 214.39941 615.43783 216.17285 616.17188 217.62305 C 616.92383 219.07324 617.85482 220.24544 618.96484 221.14062 C 620.09277 222.03581 621.31022 222.68978 622.61719 223.10156 C 623.92415 223.49544 625.14355 223.69141 626.27148 223.69141 L 642.33008 223.69141 C 642.9746 223.69141 643.55697 223.79883 644.07617 224.01367 C 644.61329 224.22851 645.0599 224.53385 645.41797 224.92773 C 645.79394 225.32161 646.0804 225.78711 646.27734 226.32422 C 646.47428 226.86133 646.57227 227.45117 646.57227 228.0957 C 646.57227 229.42057 646.19727 230.47787 645.44531 231.26562 C 644.71127 232.05338 643.67285 232.44727 642.33008 232.44727 L 615.39453 232.44727 L 615.39453 239.42969 L 642.33008 239.42969 C 643.08203 239.42969 643.87924 239.3392 644.7207 239.16016 C 645.58008 238.98112 646.42057 238.70411 647.24414 238.32812 C 648.06771 237.95215 648.86491 237.46973 649.63477 236.87891 C 650.40462 236.28809 651.07552 235.57194 651.64844 234.73047 C 652.22135 233.889 652.67741 232.9222 653.01758 231.83008 C 653.37565 230.72005 653.55469 229.47428 653.55469 228.0957 C 653.55469 226.71712 653.38509 225.48275 653.04492 224.39062 C 652.70476 223.2985 652.23926 222.33171 651.64844 221.49023 C 651.07552 220.64877 650.41406 219.93262 649.66211 219.3418 C 648.91016 218.73307 648.11296 218.23177 647.27148 217.83789 C 646.44792 217.44401 645.6149 217.15756 644.77344 216.97852 C 643.93196 216.78154 643.13477 216.67412 642.38281 216.65625 L 642.33008 216.65625 L 626.27148 216.65625 C 624.94661 216.65625 623.90625 216.27181 623.1543 215.50195 C 622.42025 214.71419 622.05469 213.64746 622.05469 212.30469 C 622.05469 210.97982 622.42025 209.91504 623.1543 209.10938 C 623.90625 208.30372 624.94661 207.90039 626.27148 207.90039 L 650.03711 207.90039 L 650.03711 200.91797 L 626.27148 200.91797 z M 669.13281 200.91797 C 668.00488 200.91797 666.78548 201.12532 665.47852 201.53711 C 664.17155 201.93099 662.95605 202.58301 661.82812 203.49609 C 660.7181 204.39127 659.78711 205.56542 659.03516 207.01562 C 658.30111 208.44791 657.93359 210.20996 657.93359 212.30469 C 657.93359 214.39941 658.30111 216.17285 659.03516 217.62305 C 659.78711 219.07324 660.7181 220.24544 661.82812 221.14062 C 662.95605 222.03581 664.17155 222.68978 665.47852 223.10156 C 666.78548 223.49544 668.00488 223.69141 669.13281 223.69141 L 685.19141 223.69141 C 685.83593 223.69141 686.41829 223.79883 686.9375 224.01367 C 687.47461 224.22851 687.92122 224.53385 688.2793 224.92773 C 688.65527 225.32161 688.94173 225.78711 689.13867 226.32422 C 689.33561 226.86133 689.43359 227.45117 689.43359 228.0957 C 689.43359 229.42057 689.05859 230.47787 688.30664 231.26562 C 687.57259 232.05338 686.53418 232.44727 685.19141 232.44727 L 658.25586 232.44727 L 658.25586 239.42969 L 685.19141 239.42969 C 685.94336 239.42969 686.74056 239.3392 687.58203 239.16016 C 688.44141 238.98112 689.2819 238.70411 690.10547 238.32812 C 690.92904 237.95215 691.72624 237.46973 692.49609 236.87891 C 693.26595 236.28809 693.93685 235.57194 694.50977 234.73047 C 695.08269 233.889 695.53874 232.9222 695.87891 231.83008 C 696.23698 230.72005 696.41602 229.47428 696.41602 228.0957 C 696.41602 226.71712 696.24642 225.48275 695.90625 224.39062 C 695.56608 223.2985 695.10059 222.33171 694.50977 221.49023 C 693.93685 220.64877 693.27539 219.93262 692.52344 219.3418 C 691.77148 218.73307 690.97429 218.23177 690.13281 217.83789 C 689.30925 217.44401 688.47624 217.15756 687.63477 216.97852 C 686.7933 216.78154 685.99609 216.67412 685.24414 216.65625 L 685.19141 216.65625 L 669.13281 216.65625 C 667.80794 216.65625 666.76758 216.27181 666.01562 215.50195 C 665.28158 214.71419 664.91602 213.64746 664.91602 212.30469 C 664.91602 210.97982 665.28158 209.91504 666.01562 209.10938 C 666.76758 208.30372 667.80794 207.90039 669.13281 207.90039 L 692.89844 207.90039 L 692.89844 200.91797 L 669.13281 200.91797 z M 501.47266 207.36328 L 510.92578 207.36328 C 512.26855 207.36328 513.49544 207.58757 514.60547 208.03516 C 515.7334 208.46484 516.69076 209.08301 517.47852 209.88867 C 518.28418 210.67643 518.90234 211.63379 519.33203 212.76172 C 519.77962 213.87175 520.00391 215.11556 520.00391 216.49414 L 520.00391 223.85352 C 520.00391 225.2321 519.77962 226.48535 519.33203 227.61328 C 518.90234 228.72331 518.28418 229.68066 517.47852 230.48633 C 516.67286 231.27409 515.70606 231.89226 514.57812 232.33984 C 513.4681 232.76953 512.23372 232.98438 510.87305 232.98438 L 501.47266 232.98438 C 500.11198 232.98438 498.86817 232.76953 497.74023 232.33984 C 496.63021 231.89226 495.67285 231.27409 494.86719 230.48633 C 494.06152 229.68066 493.43391 228.72331 492.98633 227.61328 C 492.55664 226.48535 492.3418 225.2321 492.3418 223.85352 L 492.3418 216.49414 C 492.3418 215.11556 492.55664 213.87175 492.98633 212.76172 C 493.43391 211.63379 494.06152 210.67643 494.86719 209.88867 C 495.67285 209.08301 496.63021 208.46484 497.74023 208.03516 C 498.86817 207.58757 500.11198 207.36328 501.47266 207.36328 z M 584.69727 216.65625 L 584.69727 223.69141 L 606.74609 223.69141 L 606.74609 216.65625 L 584.69727 216.65625 z " style="font-style:normal;font-variant:normal;font-weight:normal;font-stretch:normal;font-size:55px;line-height:1.25;font-family:Audiowide;-inkscape-font-specification:Audiowide;letter-spacing:0px;word-spacing:0px;fill:#f2f3f7;fill-opacity:1;stroke:none" />
      <path id="path4751" d="M 903.75195 200.38086 C 901.44238 200.38086 899.30338 200.78418 897.33398 201.58984 C 895.36458 202.39551 893.66276 203.51498 892.23047 204.94727 C 890.79818 206.36166 889.67123 208.06153 888.84766 210.04883 C 888.042 212.01823 887.63867 214.16667 887.63867 216.49414 L 887.63867 223.85352 C 887.63867 226.1989 888.042 228.35677 888.84766 230.32617 C 889.67123 232.29557 890.79818 233.99544 892.23047 235.42773 C 893.66276 236.86003 895.36458 237.97949 897.33398 238.78516 C 899.30338 239.57292 901.44238 239.9668 903.75195 239.9668 L 913.20508 239.9668 C 915.51465 239.9668 917.64616 239.57292 919.59766 238.78516 C 921.56706 237.97949 923.26693 236.86003 924.69922 235.42773 C 926.13151 233.99544 927.25097 232.29557 928.05664 230.32617 C 928.8623 228.35677 929.26562 226.1989 929.26562 223.85352 L 929.26562 216.49414 C 929.26562 214.16667 928.8623 212.01823 928.05664 210.04883 C 927.25097 208.06153 926.13151 206.36166 924.69922 204.94727 C 923.26693 203.51498 921.56706 202.39551 919.59766 201.58984 C 917.64616 200.78418 915.51465 200.38086 913.20508 200.38086 L 903.75195 200.38086 z M 808.60352 200.91797 C 807.63672 200.91797 806.57943 201.097 805.43359 201.45508 C 804.28776 201.79525 803.22298 202.35124 802.23828 203.12109 C 801.27148 203.89095 800.45736 204.903 799.79492 206.15625 C 799.15039 207.4095 798.82812 208.93034 798.82812 210.7207 L 798.82812 239.42969 L 805.81055 239.42969 L 805.81055 210.7207 C 805.81055 209.80762 806.05176 209.11035 806.53516 208.62695 C 807.01856 208.14356 807.72526 207.90039 808.65625 207.90039 L 824.39453 207.90039 C 825.30762 207.90039 826.11231 208.05306 826.81055 208.35742 C 827.50879 208.64388 828.10058 209.0472 828.58398 209.56641 C 829.08529 210.08561 829.47917 210.71126 829.76562 211.44531 C 830.05209 212.17936 830.24056 212.986 830.33008 213.86328 L 830.33008 217.03125 C 830.33008 217.92643 830.18685 218.73307 829.90039 219.44922 C 829.61393 220.14746 829.21061 220.74675 828.69141 221.24805 C 828.17221 221.74935 827.5446 222.15267 826.81055 222.45703 C 826.0944 222.74349 825.28971 222.92253 824.39453 222.99414 L 808.60352 222.99414 L 808.60352 229.97656 L 824.39453 229.97656 C 825.2539 229.97656 826.16601 229.87858 827.13281 229.68164 C 828.11751 229.4847 829.08431 229.16992 830.0332 228.74023 C 831 228.31055 831.9235 227.75651 832.80078 227.07617 C 833.67806 226.39583 834.44694 225.58171 835.10938 224.63281 C 835.78971 223.66602 836.32682 222.55599 836.7207 221.30273 C 837.11458 220.04947 837.3125 218.62467 837.3125 217.03125 L 837.3125 213.86328 C 837.3125 213.00391 837.21257 212.08985 837.01562 211.12305 C 836.81868 210.13835 836.49642 209.17155 836.04883 208.22266 C 835.61914 207.25586 835.06511 206.33431 834.38477 205.45703 C 833.72233 204.57975 832.9082 203.81087 831.94141 203.14844 C 830.99251 202.4681 829.88998 201.93099 828.63672 201.53711 C 827.38347 201.12532 825.97005 200.91797 824.39453 200.91797 L 808.60352 200.91797 z M 846.81836 200.91797 C 846.31705 200.91797 845.85156 201.00846 845.42188 201.1875 C 844.99219 201.36653 844.61719 201.61719 844.29492 201.93945 C 843.99056 202.26172 843.7474 202.63672 843.56836 203.06641 C 843.38933 203.49609 843.30078 203.9541 843.30078 204.4375 L 843.30078 239.42969 L 850.2832 239.42969 L 850.2832 207.90039 L 873.32422 207.90039 C 873.46745 207.90039 873.62012 207.9098 873.78125 207.92773 C 873.96028 207.94564 874.1224 208.00781 874.26562 208.11523 C 874.42676 208.20475 874.55111 208.35743 874.64062 208.57227 C 874.74804 208.76921 874.80273 209.0651 874.80273 209.45898 L 874.80273 213.86328 C 874.80273 214.77637 874.6595 215.59049 874.37305 216.30664 C 874.08659 217.00488 873.67383 217.60417 873.13672 218.10547 C 872.61752 218.60678 871.99187 219.01009 871.25781 219.31445 C 870.54167 219.60091 869.74446 219.77995 868.86719 219.85156 L 853.07617 219.85156 L 853.07617 226.83398 L 858.09766 226.83398 L 872.6543 239.42969 L 883.44922 239.42969 L 868.86719 226.83398 C 869.72656 226.83398 870.63868 226.736 871.60547 226.53906 C 872.59017 226.34212 873.55697 226.0293 874.50586 225.59961 C 875.47266 225.15202 876.39616 224.58658 877.27344 223.90625 C 878.15072 223.22591 878.9196 222.41178 879.58203 221.46289 C 880.26237 220.49609 880.79948 219.38607 881.19336 218.13281 C 881.58724 216.87956 881.78516 215.45671 881.78516 213.86328 L 881.78516 209.4043 C 881.78516 208.54492 881.63249 207.62337 881.32812 206.63867 C 881.04167 205.65397 880.55729 204.74186 879.87695 203.90039 C 879.21452 203.04102 878.34766 202.33236 877.27344 201.77734 C 876.19922 201.20442 874.88184 200.91797 873.32422 200.91797 L 846.81836 200.91797 z M 939.68555 200.91797 C 939.18424 200.91797 938.71875 201.00846 938.28906 201.1875 C 937.85938 201.36653 937.48242 201.61719 937.16016 201.93945 C 936.8558 202.26172 936.61459 202.63672 936.43555 203.06641 C 936.25651 203.49609 936.16602 203.9541 936.16602 204.4375 L 936.16602 235.91211 C 936.16602 236.41341 936.25651 236.87891 936.43555 237.30859 C 936.61459 237.73829 936.8558 238.11329 937.16016 238.43555 C 937.48242 238.73991 937.85938 238.98112 938.28906 239.16016 C 938.71875 239.3392 939.18424 239.42969 939.68555 239.42969 L 958.53711 239.42969 C 960.84668 239.42969 962.98568 239.02637 964.95508 238.2207 C 966.92448 237.41504 968.6263 236.30501 970.05859 234.89062 C 971.49089 233.45833 972.61035 231.75846 973.41602 229.78906 C 974.23958 227.81966 974.65039 225.66178 974.65039 223.31641 L 974.65039 217.03125 C 974.65039 214.70377 974.23958 212.55534 973.41602 210.58594 C 972.61035 208.59864 971.49089 206.89877 970.05859 205.48438 C 968.6263 204.05209 966.92448 202.93262 964.95508 202.12695 C 962.98568 201.32129 960.84668 200.91797 958.53711 200.91797 L 939.68555 200.91797 z M 980.77344 200.91797 L 980.77344 220.17383 C 980.77344 222.42968 981.04296 224.48014 981.58008 226.32422 C 982.11718 228.15039 982.85026 229.77865 983.78125 231.21094 C 984.73014 232.62533 985.83073 233.85222 987.08398 234.89062 C 988.33724 235.92904 989.67155 236.78841 991.08594 237.46875 C 992.51823 238.13118 993.99576 238.62305 995.51758 238.94531 C 997.03938 239.26758 998.54328 239.42969 1000.0293 239.42969 L 1015.7656 239.42969 C 1016.249 239.42969 1016.7071 239.3392 1017.1367 239.16016 C 1017.5664 238.98112 1017.9414 238.73991 1018.2637 238.43555 C 1018.5859 238.11329 1018.8366 237.73829 1019.0156 237.30859 C 1019.1946 236.87891 1019.2852 236.41341 1019.2852 235.91211 L 1019.2852 200.91797 L 1012.3027 200.91797 L 1012.3027 232.44727 L 1000.0293 232.44727 C 999.81444 232.44727 999.3584 232.42092 998.66016 232.36719 C 997.97982 232.29557 997.18262 232.13347 996.26953 231.88281 C 995.37435 231.63216 994.42448 231.24772 993.42188 230.72852 C 992.41927 230.20932 991.49772 229.49316 990.65625 228.58008 C 989.81478 227.66699 989.11751 226.5306 988.5625 225.16992 C 988.02539 223.80925 987.75586 222.14323 987.75586 220.17383 L 987.75586 200.91797 L 980.77344 200.91797 z M 1036.7129 200.91797 C 1035.5134 200.91797 1034.4391 201.07063 1033.4902 201.375 C 1032.5413 201.67936 1031.7008 202.09212 1030.9668 202.61133 C 1030.2507 203.11263 1029.6325 203.69304 1029.1133 204.35547 C 1028.5941 205.01791 1028.1738 205.71713 1027.8516 206.45117 C 1027.5293 207.16732 1027.2881 207.90039 1027.127 208.65234 C 1026.9838 209.38639 1026.9121 210.07617 1026.9121 210.7207 L 1026.9121 229.62695 C 1026.9121 230.8265 1027.0629 231.91016 1027.3672 232.87695 C 1027.6716 233.82585 1028.0749 234.66634 1028.5762 235.40039 C 1029.0954 236.11653 1029.6871 236.7347 1030.3496 237.25391 C 1031.0121 237.75521 1031.6999 238.16797 1032.416 238.49023 C 1033.15 238.81249 1033.8851 239.05371 1034.6191 239.21484 C 1035.3711 239.35808 1036.0684 239.42969 1036.7129 239.42969 L 1061.9043 239.42969 L 1061.9043 232.44727 L 1036.7129 232.44727 C 1035.8178 232.44727 1035.1205 232.20605 1034.6191 231.72266 C 1034.1357 231.22135 1033.8945 230.52213 1033.8945 229.62695 L 1033.8945 210.77539 C 1033.8945 209.8265 1034.1357 209.11035 1034.6191 208.62695 C 1035.1025 208.14356 1035.7998 207.90039 1036.7129 207.90039 L 1061.9043 207.90039 L 1061.9043 200.91797 L 1036.7129 200.91797 z M 1065.584 200.91797 L 1065.584 207.90039 L 1080.998 207.90039 L 1080.998 239.42969 L 1087.9805 239.42969 L 1087.9805 207.90039 L 1103.3691 207.90039 L 1103.3691 200.91797 L 1065.584 200.91797 z M 903.75195 207.36328 L 913.20508 207.36328 C 914.54785 207.36328 915.77474 207.58757 916.88477 208.03516 C 918.0127 208.46484 918.97005 209.08301 919.75781 209.88867 C 920.56347 210.67643 921.18163 211.63379 921.61133 212.76172 C 922.05891 213.87175 922.2832 215.11556 922.2832 216.49414 L 922.2832 223.85352 C 922.2832 225.2321 922.05891 226.48535 921.61133 227.61328 C 921.18163 228.72331 920.56347 229.68066 919.75781 230.48633 C 918.95215 231.27409 917.98535 231.89226 916.85742 232.33984 C 915.7474 232.76953 914.51302 232.98438 913.15234 232.98438 L 903.75195 232.98438 C 902.39127 232.98438 901.14746 232.76953 900.01953 232.33984 C 898.9095 231.89226 897.95215 231.27409 897.14648 230.48633 C 896.34082 229.68066 895.71322 228.72331 895.26562 227.61328 C 894.83594 226.48535 894.62109 225.2321 894.62109 223.85352 L 894.62109 216.49414 C 894.62109 215.11556 894.83594 213.87175 895.26562 212.76172 C 895.71322 211.63379 896.34082 210.67643 897.14648 209.88867 C 897.95215 209.08301 898.9095 208.46484 900.01953 208.03516 C 901.14746 207.58757 902.39127 207.36328 903.75195 207.36328 z M 943.14844 207.90039 L 958.53711 207.90039 C 959.89778 207.90039 961.13411 208.12468 962.24414 208.57227 C 963.37207 209.00195 964.33886 209.62011 965.14453 210.42578 C 965.9502 211.21354 966.56641 212.17089 966.99609 213.29883 C 967.44368 214.42675 967.66797 215.67057 967.66797 217.03125 L 967.66797 223.31641 C 967.66797 224.69499 967.44368 225.94825 966.99609 227.07617 C 966.56641 228.1862 965.9502 229.14355 965.14453 229.94922 C 964.33886 230.73698 963.37207 231.35515 962.24414 231.80273 C 961.13411 232.23242 959.89778 232.44727 958.53711 232.44727 L 943.14844 232.44727 L 943.14844 207.90039 z " style="font-style:normal;font-variant:normal;font-weight:normal;font-stretch:normal;font-size:55px;line-height:1.25;font-family:Audiowide;-inkscape-font-specification:Audiowide;letter-spacing:0px;word-spacing:0px;fill:#f2f3f7;fill-opacity:1;stroke:none" />
   </g>
   <!-- raks -->
   <path style="font-size:150px;font-family:Audiowide-Regular, Audiowide;fill:#fb4e2e" d="M 20.654297 40.699219 C 19.28711 40.699219 18.017578 40.94336 16.845703 41.431641 C 15.673828 41.919922 14.648438 42.603515 13.769531 43.482422 C 12.939453 44.361328 12.279297 45.386718 11.791016 46.558594 C 11.302734 47.730468 11.058594 48.974609 11.058594 50.292969 L 11.058594 145.72852 L 30.101562 145.72852 L 30.101562 59.742188 L 92.945312 59.742188 C 93.335937 59.742188 93.75 59.765626 94.189453 59.814453 C 94.677734 59.863282 95.117188 60.035156 95.507812 60.328125 C 95.947266 60.572266 96.289062 60.986328 96.533203 61.572266 C 96.826172 62.109375 96.972656 62.916016 96.972656 63.990234 L 96.972656 76.001953 C 96.972656 78.492187 96.582031 80.71289 95.800781 82.666016 C 95.019531 84.570312 93.896484 86.207031 92.431641 87.574219 C 91.015625 88.941406 89.306641 90.039063 87.304688 90.869141 C 85.351563 91.650391 83.179687 92.138672 80.787109 92.333984 L 37.720703 92.333984 L 37.720703 111.37695 L 51.416016 111.37695 L 91.113281 145.72852 L 120.55664 145.72852 L 80.787109 111.37695 C 83.130859 111.37695 85.621094 111.10937 88.257812 110.57227 C 90.943359 110.03516 93.578125 109.17969 96.166016 108.00781 C 98.802734 106.78711 101.31836 105.25 103.71094 103.39453 C 106.10351 101.53906 108.20312 99.316405 110.00977 96.728516 C 111.86523 94.091797 113.33008 91.064453 114.4043 87.646484 C 115.47852 84.228516 116.01562 80.347656 116.01562 76.001953 L 116.01562 63.84375 C 116.01562 61.5 115.60156 58.984375 114.77148 56.298828 C 113.99023 53.613281 112.67187 51.123047 110.81641 48.828125 C 109.00977 46.484375 106.64062 44.55664 103.71094 43.042969 C 100.78125 41.480469 97.193359 40.699219 92.945312 40.699219 L 20.654297 40.699219 z M 185.81641 40.699219 C 178.24805 40.699219 171.26367 41.992188 164.86719 44.580078 C 158.47071 47.167969 152.92969 50.78125 148.24219 55.419922 C 143.55469 60.058594 139.89258 65.601562 137.25586 72.046875 C 134.61914 78.492188 133.30078 85.546875 133.30078 93.212891 L 133.30078 145.72852 L 152.34375 145.72852 L 152.34375 119.94727 L 219.28711 119.94727 L 219.28711 145.72852 L 238.33008 145.72852 L 238.33008 50.292969 C 238.33008 48.974609 238.08594 47.730468 237.59766 46.558594 C 237.10937 45.386718 236.42578 44.361328 235.54688 43.482422 C 234.66798 42.603515 233.64258 41.919922 232.4707 41.431641 C 231.29883 40.94336 230.05274 40.699219 228.73438 40.699219 L 185.81641 40.699219 z M 260.52148 40.699219 L 260.52148 145.72852 L 279.56641 145.72852 L 279.56641 40.699219 L 260.52148 40.699219 z M 343.43359 40.699219 L 300.58594 83.619141 L 287.18359 83.619141 L 287.18359 102.80859 L 300.58594 102.80859 L 343.43359 145.72852 L 370.45898 145.72852 L 316.47852 93.212891 L 370.45898 40.699219 L 343.43359 40.699219 z M 409.05859 40.699219 C 405.98242 40.699219 402.66211 41.259766 399.09766 42.382812 C 395.5332 43.457031 392.21094 45.240234 389.13477 47.730469 C 386.10743 50.171875 383.56836 53.369141 381.51758 57.324219 C 379.51562 61.230469 378.51562 66.041016 378.51562 71.753906 C 378.51562 77.466797 379.51562 82.300781 381.51758 86.255859 C 383.56836 90.210937 386.10743 93.408203 389.13477 95.849609 C 392.21094 98.291015 395.5332 100.07422 399.09766 101.19727 C 402.66211 102.27149 405.98242 102.80859 409.05859 102.80859 L 452.85742 102.80859 C 454.61523 102.80859 456.20117 103.10157 457.61719 103.6875 C 459.08203 104.27344 460.30273 105.10351 461.2793 106.17773 C 462.30468 107.25195 463.08593 108.52149 463.62305 109.98633 C 464.16015 111.45117 464.42773 113.0625 464.42773 114.82031 C 464.42773 118.43359 463.4043 121.31446 461.35352 123.46289 C 459.35156 125.61133 456.51953 126.68555 452.85742 126.68555 L 379.39453 126.68555 L 379.39453 145.72852 L 452.85742 145.72852 C 454.9082 145.72852 457.08008 145.48437 459.375 144.99609 C 461.71875 144.50781 464.01367 143.75 466.25977 142.72461 C 468.50586 141.69922 470.67774 140.38086 472.77734 138.76953 C 474.87695 137.1582 476.70898 135.20508 478.27148 132.91016 C 479.83398 130.61523 481.08007 127.97851 482.00781 125 C 482.98437 121.97265 483.47266 118.58007 483.47266 114.82031 C 483.47266 111.06055 483.00781 107.69141 482.08008 104.71289 C 481.15234 101.73438 479.88282 99.097656 478.27148 96.802734 C 476.70898 94.507812 474.90234 92.554687 472.85156 90.943359 C 470.80078 89.283203 468.6289 87.916016 466.33398 86.841797 C 464.08789 85.767578 461.81641 84.986328 459.52148 84.498047 C 457.22656 83.960936 455.05469 83.667967 453.00391 83.619141 L 452.85742 83.619141 L 409.05859 83.619141 C 405.44531 83.619141 402.61133 82.568359 400.56055 80.46875 C 398.55859 78.320313 397.55859 75.416016 397.55859 71.753906 C 397.55859 68.140625 398.55859 65.234375 400.56055 63.037109 C 402.61133 60.839843 405.44531 59.742188 409.05859 59.742188 L 473.87695 59.742188 L 473.87695 40.699219 L 409.05859 40.699219 z M 185.81641 59.742188 L 219.28711 59.742188 L 219.28711 100.9043 L 152.34375 100.9043 L 152.34375 93.212891 C 152.34375 87.890625 153.07617 83.375 154.54102 79.664062 C 156.05468 75.904297 157.95898 72.779297 160.25391 70.289062 C 162.54883 67.798829 165.0625 65.845703 167.79688 64.429688 C 170.53125 63.013672 173.11914 61.962891 175.56055 61.279297 C 178.05078 60.595704 180.2246 60.181641 182.08008 60.035156 C 183.98437 59.839844 185.23047 59.742188 185.81641 59.742188 z " id="path4668" />
   <!-- group -->
   <path style="font-style:normal;font-variant:normal;font-weight:normal;font-stretch:normal;font-size:150px;line-height:1.25;font-family:Audiowide;-inkscape-font-specification:Audiowide;letter-spacing:0px;word-spacing:0px;fill:#f2f3f7;fill-opacity:1;stroke:none" d="M 812.875 40.699219 C 806.57617 40.699219 800.74219 41.796875 795.37109 43.994141 C 789.99999 46.191406 785.36132 49.244141 781.45508 53.150391 C 777.54882 57.007813 774.47266 61.646484 772.22656 67.066406 C 770.0293 72.4375 768.92969 78.296875 768.92969 84.644531 L 768.92969 104.71289 C 768.92969 111.10938 770.0293 116.99219 772.22656 122.36328 C 774.47266 127.73437 777.54882 132.37304 781.45508 136.2793 C 785.36132 140.18554 789.99999 143.23828 795.37109 145.43555 C 800.74219 147.58399 806.57617 148.6582 812.875 148.6582 L 838.65625 148.6582 C 844.95508 148.6582 850.76562 147.58399 856.08789 145.43555 C 861.45898 143.23828 866.09766 140.18554 870.00391 136.2793 C 873.91016 132.37304 876.96289 127.73437 879.16016 122.36328 C 881.35742 116.99219 882.45508 111.10938 882.45508 104.71289 L 882.45508 84.644531 C 882.45508 78.296875 881.35742 72.4375 879.16016 67.066406 C 876.96289 61.646484 873.91016 57.007813 870.00391 53.150391 C 866.09766 49.244141 861.45898 46.191406 856.08789 43.994141 C 850.76562 41.796875 844.95508 40.699219 838.65625 40.699219 L 812.875 40.699219 z M 549.7168 42.164062 C 546.44531 42.164062 543.51562 42.578125 540.92773 43.408203 C 538.33984 44.238282 536.04492 45.361328 534.04297 46.777344 C 532.08984 48.144531 530.40429 49.732422 528.98828 51.539062 C 527.57227 53.345703 526.42578 55.25 525.54688 57.251953 C 524.66797 59.205078 524.00781 61.207031 523.56836 63.257812 C 523.17773 65.259766 522.98242 67.138672 522.98242 68.896484 L 522.98242 120.45898 C 522.98242 123.73047 523.39844 126.68555 524.22852 129.32227 C 525.05859 131.91016 526.15624 134.20508 527.52344 136.20703 C 528.93945 138.16015 530.55078 139.84375 532.35742 141.25977 C 534.16406 142.62695 536.04492 143.75 537.99805 144.62891 C 540 145.50781 542.00195 146.16797 544.00391 146.60742 C 546.05469 146.99804 547.95898 147.19336 549.7168 147.19336 L 618.41797 147.19336 C 619.78516 147.19336 621.05469 146.94922 622.22656 146.46094 C 623.39844 145.97266 624.39844 145.3125 625.22852 144.48242 C 626.10742 143.60352 626.79101 142.57812 627.2793 141.40625 C 627.76758 140.23438 628.01172 138.96484 628.01172 137.59766 L 628.01172 94.677734 C 628.01172 93.359375 627.76758 92.138672 627.2793 91.015625 C 626.79101 89.84375 626.10742 88.81836 625.22852 87.939453 C 624.39844 87.060547 623.39844 86.376953 622.22656 85.888672 C 621.05469 85.351563 619.78516 85.083984 618.41797 85.083984 L 558.28516 85.083984 L 558.28516 104.27344 L 608.96875 104.27344 L 608.96875 128.15039 L 549.7168 128.15039 C 547.27539 128.15039 545.37109 127.49023 544.00391 126.17188 C 542.68555 124.80468 542.02539 122.90039 542.02539 120.45898 L 542.02539 69.042969 C 542.02539 66.455078 542.68555 64.501953 544.00391 63.183594 C 545.32227 61.865234 547.22656 61.207031 549.7168 61.207031 L 627.13281 61.207031 L 627.13281 42.164062 L 549.7168 42.164062 z M 657.60156 42.164062 C 656.23438 42.164063 654.96484 42.408203 653.79297 42.896484 C 652.62109 43.384766 651.5957 44.06836 650.7168 44.947266 C 649.88672 45.826172 649.22851 46.851563 648.74023 48.023438 C 648.25195 49.195313 648.00781 50.439453 648.00781 51.757812 L 648.00781 147.19336 L 667.05078 147.19336 L 667.05078 61.207031 L 729.89258 61.207031 C 730.2832 61.207031 730.69727 61.23047 731.13672 61.279297 C 731.625 61.328125 732.06445 61.499999 732.45508 61.792969 C 732.89453 62.037109 733.23633 62.451171 733.48047 63.037109 C 733.77344 63.574219 733.91992 64.380859 733.91992 65.455078 L 733.91992 77.466797 C 733.91992 79.957031 733.52929 82.177734 732.74805 84.130859 C 731.96679 86.035156 730.84375 87.671875 729.37891 89.039062 C 727.96289 90.40625 726.25391 91.503906 724.25195 92.333984 C 722.29883 93.115234 720.12695 93.603516 717.73438 93.798828 L 674.66797 93.798828 L 674.66797 112.8418 L 688.36328 112.8418 L 728.06055 147.19336 L 757.50391 147.19336 L 717.73438 112.8418 C 720.07812 112.8418 722.56836 112.57422 725.20508 112.03711 C 727.89062 111.5 730.52734 110.64453 733.11523 109.47266 C 735.75195 108.25195 738.26562 106.71484 740.6582 104.85938 C 743.05078 103.00391 745.15039 100.78125 746.95703 98.193359 C 748.8125 95.556641 750.27734 92.529297 751.35156 89.111328 C 752.42578 85.693359 752.96289 81.8125 752.96289 77.466797 L 752.96289 65.308594 C 752.96289 62.964844 752.54883 60.449219 751.71875 57.763672 C 750.9375 55.078125 749.61915 52.587891 747.76367 50.292969 C 745.95703 47.949219 743.58789 46.021484 740.6582 44.507812 C 737.72852 42.945313 734.14062 42.164062 729.89258 42.164062 L 657.60156 42.164062 z M 899.30078 42.164062 L 899.30078 94.677734 C 899.30078 100.83008 900.0332 106.42187 901.49805 111.45117 C 902.96289 116.43164 904.96485 120.875 907.50391 124.78125 C 910.0918 128.63868 913.09571 131.98243 916.51367 134.81445 C 919.93165 137.64649 923.56836 139.99024 927.42578 141.8457 C 931.33203 143.65234 935.36133 144.99609 939.51172 145.875 C 943.66211 146.75391 947.76367 147.19336 951.81641 147.19336 L 994.73633 147.19336 C 996.05469 147.19336 997.29883 146.94922 998.4707 146.46094 C 999.64258 145.97266 1000.6679 145.3125 1001.5469 144.48242 C 1002.4257 143.60352 1003.1094 142.57812 1003.5977 141.40625 C 1004.086 140.23438 1004.3301 138.96484 1004.3301 137.59766 L 1004.3301 42.164062 L 985.28711 42.164062 L 985.28711 128.15039 L 951.81641 128.15039 C 951.23047 128.15039 949.98437 128.07617 948.08008 127.92969 C 946.2246 127.73437 944.05273 127.29492 941.5625 126.61133 C 939.12109 125.92773 936.5332 124.87891 933.79883 123.46289 C 931.06445 122.04688 928.54883 120.09375 926.25391 117.60352 C 923.95899 115.11328 922.05469 112.01172 920.54102 108.30078 C 919.07618 104.58985 918.34375 100.04883 918.34375 94.677734 L 918.34375 42.164062 L 899.30078 42.164062 z M 1052.8906 42.164062 C 1050.254 42.164062 1047.373 42.652344 1044.248 43.628906 C 1041.123 44.556641 1038.2168 46.070313 1035.5312 48.169922 C 1032.8946 50.269531 1030.6739 53.027344 1028.8672 56.445312 C 1027.1094 59.863281 1026.2305 64.013672 1026.2305 68.896484 L 1026.2305 147.19336 L 1045.2734 147.19336 L 1045.2734 68.896484 C 1045.2734 66.40625 1045.9316 64.501953 1047.25 63.183594 C 1048.5683 61.865234 1050.498 61.207031 1053.0371 61.207031 L 1095.957 61.207031 C 1098.4473 61.207031 1100.6446 61.621094 1102.5488 62.451172 C 1104.4532 63.232422 1106.0645 64.332031 1107.3828 65.748047 C 1108.75 67.164062 1109.8242 68.873047 1110.6055 70.875 C 1111.3867 72.876953 1111.8984 75.074218 1112.1426 77.466797 L 1112.1426 86.109375 C 1112.1426 88.550781 1111.752 90.748047 1110.9707 92.701172 C 1110.1894 94.605469 1109.0918 96.240235 1107.6758 97.607422 C 1106.2598 98.974609 1104.5508 100.07422 1102.5488 100.9043 C 1100.5958 101.68555 1098.3985 102.17383 1095.957 102.36914 L 1052.8906 102.36914 L 1052.8906 121.41211 L 1095.957 121.41211 C 1098.3008 121.41211 1100.7911 121.14258 1103.4277 120.60547 C 1106.1133 120.06836 1108.75 119.21485 1111.3379 118.04297 C 1113.9746 116.8711 1116.4883 115.35742 1118.8809 113.50195 C 1121.2735 111.64648 1123.373 109.42382 1125.1797 106.83594 C 1127.0352 104.19922 1128.5 101.17187 1129.5742 97.753906 C 1130.6484 94.335937 1131.1855 90.455078 1131.1855 86.109375 L 1131.1855 77.466797 C 1131.1855 75.123047 1130.9179 72.632812 1130.3809 69.996094 C 1129.8437 67.310546 1128.9648 64.673828 1127.7441 62.085938 C 1126.5722 59.449219 1125.0586 56.933594 1123.2031 54.541016 C 1121.3965 52.148438 1119.1738 50.048828 1116.5371 48.242188 C 1113.9492 46.386719 1110.9473 44.921875 1107.5293 43.847656 C 1104.1114 42.724609 1100.254 42.164063 1095.957 42.164062 L 1052.8906 42.164062 z M 812.875 59.742188 L 838.65625 59.742188 C 842.31836 59.742188 845.66406 60.351562 848.69141 61.572266 C 851.76758 62.74414 854.37891 64.429687 856.52734 66.626953 C 858.72461 68.77539 860.41016 71.386719 861.58203 74.462891 C 862.80274 77.490235 863.41211 80.884766 863.41211 84.644531 L 863.41211 104.71289 C 863.41211 108.47266 862.80274 111.89062 861.58203 114.9668 C 860.41016 117.99414 858.72461 120.60547 856.52734 122.80273 C 854.33008 124.95117 851.69335 126.63672 848.61719 127.85742 C 845.58984 129.0293 842.22071 129.61523 838.50977 129.61523 L 812.875 129.61523 C 809.16406 129.61523 805.77149 129.0293 802.69531 127.85742 C 799.66797 126.63672 797.05469 124.95117 794.85742 122.80273 C 792.66016 120.60547 790.95117 117.99414 789.73047 114.9668 C 788.55859 111.89062 787.97266 108.47266 787.97266 104.71289 L 787.97266 84.644531 C 787.97266 80.884766 788.55859 77.490235 789.73047 74.462891 C 790.95117 71.386719 792.66016 68.77539 794.85742 66.626953 C 797.05469 64.429687 799.66797 62.74414 802.69531 61.572266 C 805.77149 60.351562 809.16406 59.742188 812.875 59.742188 z " id="path4682" />
</svg>