<svg fill="#424449" height="681pt" viewBox="-76 -21 681 681.33468" width="681pt" xmlns="http://www.w3.org/2000/svg">
    <path
        d="m261.761719 331.40625c91.34375 0 165.65625-74.3125 165.65625-165.660156 0-91.34375-74.3125-165.6640628-165.65625-165.6640628-26.539063 0-51.898438 6.0937498-75.367188 18.1015628-6.144531 3.140625-8.574219 10.671875-5.433593 16.8125 3.144531 6.144531 10.671874 8.570312 16.8125 5.433594 19.917968-10.191407 41.445312-15.355469 63.988281-15.355469 77.5625 0 140.671875 63.101562 140.671875 140.671875 0 77.566406-63.109375 140.671875-140.671875 140.671875-77.570313 0-140.679688-63.105469-140.679688-140.671875 0-21.316406 4.640625-41.777344 13.792969-60.832032 2.992188-6.21875.371094-13.6875-5.847656-16.671874-6.222656-2.988282-13.683594-.367188-16.675782 5.851562-10.785156 22.457031-16.257812 46.5625-16.257812 71.652344.003906 91.34375 74.316406 165.660156 165.667969 165.660156zm0 0" />
    <path
        d="m165.902344 224.25 34.957031 34.957031c5.183594 5.183594 12.082031 8.039063 19.414063 8.039063 7.332031 0 14.226562-2.855469 19.410156-8.035156l103.519531-103.519532c5.84375-5.847656 8.726563-13.921875 7.90625-22.148437l-2.183594-21.792969c-1.054687-10.503906-7.851562-19.3125-17.746093-22.996094-9.890626-3.679687-20.796876-1.453125-28.457032 5.808594l-77.613281 73.582031c-.984375.929688-2.542969.890625-3.480469-.089843-5.210937-5.460938-12.507812-8.535157-20.082031-8.5-7.554687.066406-14.824219 3.28125-19.953125 8.832031l-16.449219 17.832031c-10.035156 10.867188-9.699219 27.574219.757813 38.03125zm17.601562-21.082031 16.453125-17.832031c.601563-.648438 1.308594-.789063 1.792969-.792969h.027344c.480468 0 1.175781.136719 1.777344.765625 10.417968 10.914062 27.800781 11.347656 38.746093.96875l77.617188-73.582032c.738281-.703124 1.597656-.878906 2.554687-.523437.953125.359375 1.492188 1.050781 1.59375 2.0625l2.175782 21.792969c.074218.742187-.183594 1.46875-.703126 1.988281l-103.519531 103.523437c-.601562.59375-1.277343.722657-1.746093.722657-.460938 0-1.144532-.128907-1.738282-.722657l-34.960937-34.960937c-.941407-.933594-.96875-2.4375-.070313-3.410156zm0 0" />
    <path
        d="m147.0625 71.128906.386719.292969c2.253906 1.710937 4.90625 2.535156 7.539062 2.535156 3.777344 0 7.507813-1.707031 9.964844-4.945312 4.167969-5.496094 3.089844-13.339844-2.414063-17.503907l-.382812-.289062c-5.492188-4.171875-13.332031-3.089844-17.5 2.40625-4.171875 5.496094-3.089844 13.339844 2.40625 17.503906zm0 0" />
    <path
        d="m510.550781 539.585938c-8.089843-12.550782-20.71875-21.023438-35.007812-23.886719 2.800781-5.683594 4.378906-12.074219 4.378906-18.828125v-25.550782c0-.242187-.011719-.484374-.019531-.722656 0-.078125.011718-.148437.011718-.226562-.003906-.367188-.03125-.722656-.042968-1.089844-.007813-.074219-.007813-.152344-.011719-.230469-1.046875-22.457031-19.800781-40.511719-42.421875-40.511719h-2.558594c-4.980468 0-9.753906.867188-14.199218 2.445313.832031-3.332031 1.269531-6.792969 1.28125-10.320313l.074218-25.558593c0-.242188-.015625-.480469-.019531-.71875 0-.078125.011719-.152344.011719-.230469-.003906-.355469-.027344-.710938-.042969-1.070312-.003906-.085938-.003906-.171876-.007813-.253907-.992187-22.457031-19.691406-40.5625-42.3125-40.625h-.28125c-.003906 0-.011718 0-.015624 0h-.929688l-1.332031-.003906c-.039063 0-.078125 0-.121094 0-22.753906 0-41.398437 17.992187-42.4375 40.519531-.003906.09375-.003906.1875-.007813.277344-.019531.523438-.039062 1.050781-.042968 1.574219v.070312c0 .074219-.007813.144531-.007813.21875l-.070312 25.554688c-.019531 6.695312 1.507812 13.035156 4.25 18.695312-12.367188 2.269531-23.53125 8.757813-31.679688 18.433594-.320312-.046875-.640625-.109375-.964843-.15625 4.507812-7.519531 7.105468-16.304687 7.105468-25.695313v-31.765624c0-.285157-.011718-.574219-.019531-.855469 0-.09375.015625-.1875.011719-.277344-.003906-.441406-.035156-.875-.054688-1.308594 0-.066406-.003906-.128906-.003906-.191406-1.203125-26.332031-23.1875-47.507813-49.707031-47.507813h-3.179688c-27.449219 0-49.785156 22.332032-49.785156 49.785157v.066406c0 .097656-.007813.191406-.007813.289063v31.765624c0 9.34375 2.570313 18.085938 7.039063 25.578126-.585937.074218-1.164063.167968-1.746094.253906-8.15625-9.675782-19.328125-16.160156-31.703125-18.417969 2.746094-5.683594 4.203125-11.957031 4.222656-18.453125l.066407-25.550781c0-.246094-.007813-.484375-.015625-.734375 0-.074219.011718-.140625.011718-.214844-.003906-.316406-.023437-.628906-.035156-.945312-.003906-.121094-.007812-.242188-.015625-.367188-.976562-22.460938-19.683593-40.574219-42.308593-40.636719h-.28125c-.007813 0-.011719 0-.015626 0l-.929687-.003906-1.332031-.003906c-.039063 0-.078125 0-.121094 0-11.300781 0-21.941406 4.390625-29.957031 12.363281-8.050781 8.003906-12.5 18.664062-12.527344 30.011719v.019531c-.007813.089844-.011719.183594-.011719.269531l-.074218 25.550781c-.007813 3.519532.40625 6.96875 1.21875 10.296876-4.222657-1.421876-8.730469-2.203126-13.40625-2.203126h-2.558594c-23.429688 0-42.488282 19.058594-42.488282 42.492188v.046875c0 .078125-.003906.160156-.003906.238281v25.554688c0 6.699218 1.546875 13.039062 4.300782 18.6875-14.574219 2.71875-27.488282 11.269531-35.710938 24.027344-10.136719 15.730468-15.492188 33.933593-15.492188 52.648437v33.4375c0 6.902344 5.59375 12.496094 12.496094 12.496094 24.515625 0 50.71875.078125 76.066406.152343 26.199219.078126 53.292969.160157 79.507813.160157 33.375 0 61.859375.089843 92.015625.183593 30.945312.097657 62.941406.203126 101.378906.203126 1.40625 0 2.746094-.246094 4.003906-.667969 21.507813.003906 43.253907.070312 66.195313.140625 26.960937.082031 54.839844.164062 85.378906.164062 6.898438 0 12.492188-5.59375 12.492188-12.488281v-33.75c0-18.710937-5.355469-36.917969-15.492188-52.648437zm-75.394531-86.058594h1.984375c5.683594 0 10.734375 2.6875 13.992187 6.835937-7.335937.734375-14.359374 3.425781-21.21875 6.070313-1.625.621094-3.285156 1.261718-4.972656 1.882812-.023437.011719-1.921875.578125-7.269531-.203125 1.515625-8.285156 8.773437-14.585937 17.484375-14.585937zm-17.785156 39.691406c1.820312.175781 3.566406.273438 5.214844.273438 4.214843 0 7.859374-.574219 10.976562-1.722657 1.820312-.667969 3.59375-1.351562 5.324219-2.015625 6.359375-2.449218 11.976562-4.597656 16.046875-4.578125v11.695313c0 9.550781-7.570313 17.34375-17.023438 17.753906h-3.523437c-9.449219-.410156-17.015625-8.203125-17.015625-17.753906zm-52.648438-110.851562c3.359375-3.335938 7.808594-5.175782 12.550782-5.175782h1.0625l.972656.007813c5.679687.011719 10.722656 2.710937 13.96875 6.875-7.339844.707031-14.367188 3.386719-21.238282 6.007812-1.628906.621094-3.289062 1.253907-4.972656 1.867188-.027344.007812-1.933594.574219-7.28125-.222657.648438-3.53125 2.339844-6.777343 4.9375-9.359374zm-5.304687 34.5c1.859375.183593 3.632812.292968 5.304687.292968 4.152344 0 7.75-.582031 10.898438-1.730468 1.816406-.664063 3.585937-1.339844 5.320312-2.003907 6.371094-2.425781 11.988282-4.566406 16.0625-4.53125l-.035156 11.695313c-.011719 4.75-1.875 9.214844-5.242188 12.566406-3.175781 3.160156-7.339843 4.953125-11.789062 5.136719l-3.570312-.007813c-9.445313-.441406-16.984376-8.25-16.960938-17.796875zm-123.917969-19.378907c.003906-.070312.007812-.144531.019531-.21875 1.332031-12.621093 12.035157-22.488281 25.003907-22.488281h2.464843c10 0 18.632813 5.875 22.6875 14.351562-10.503906-.117187-20.699219 3.757813-30.582031 7.558594-2.03125.785156-4.113281 1.582032-6.242188 2.367188-1.476562.546875-5.722656.820312-13.402343-.597656.015625-.324219.015625-.65625.050781-.972657zm-.128906 26.265625c3.417968.464844 6.59375.71875 9.511718.71875 4.867188 0 9.054688-.65625 12.609376-1.96875 2.246093-.824218 4.433593-1.667968 6.574218-2.488281 9.683594-3.730469 18.050782-6.945313 24.078125-5.578125v17.257812c0 13.542969-10.769531 24.59375-24.191406 25.105469h-4.390625c-13.421875-.511719-24.191406-11.558593-24.191406-25.105469zm-104.414063-41.386718c3.359375-3.335938 7.808594-5.175782 12.542969-5.175782h1.066406l.976563.007813c.527343 0 1.042969.03125 1.558593.078125.074219.007812.152344.007812.226563.011718 4.070313.414063 7.84375 2.207032 10.773437 5.152344.511719.515625.972657 1.066406 1.417969 1.632813-7.34375.707031-14.371093 3.382812-21.253906 6.007812-1.621094.621094-3.289063 1.253907-4.96875 1.867188-.023437.007812-1.929687.574219-7.277344-.222657.648438-3.53125 2.339844-6.777343 4.9375-9.359374zm-5.308593 34.5c1.863281.183593 3.636718.292968 5.3125.292968 4.148437 0 7.746093-.582031 10.894531-1.730468 1.816406-.664063 3.585937-1.339844 5.320312-2 6.363281-2.429688 11.988281-4.570313 16.0625-4.535157l-.03125 11.695313c-.011719 4.753906-1.878906 9.214844-5.246093 12.566406-3.128907 3.109375-7.207032 4.898438-11.578126 5.128906l-3.617187.007813c-4.519531-.164063-8.742187-1.988281-11.949219-5.214844-3.347656-3.367187-5.1875-7.839844-5.175781-12.589844zm-39.460938 36.632812h1.980469c5.679687 0 10.734375 2.683594 13.992187 6.835938-7.339844.730468-14.359375 3.425781-21.226562 6.066406-1.625.628906-3.285156 1.269531-4.960938 1.882812-.023437.007813-1.929687.574219-7.277344-.207031 1.519532-8.277344 8.777344-14.578125 17.492188-14.578125zm-17.792969 39.71875c1.816407.183594 3.546875.28125 5.183594.28125 4.203125 0 7.835937-.589844 11.015625-1.761719 1.8125-.667969 3.582031-1.34375 5.304688-2.011719 6.367187-2.445312 11.984374-4.601562 16.058593-4.574218v11.6875c0 9.554687-7.566406 17.351562-17.015625 17.753906h-3.523437c-9.457031-.402344-17.023438-8.199219-17.023438-17.753906zm83.6875 120.234375c-22.230469-.019531-44.902343-.085937-66.9375-.148437-21.109375-.066407-42.808593-.132813-63.652343-.148438v-20.949219c0-13.902343 3.984374-27.425781 11.515624-39.113281 5.449219-8.460938 14.714844-13.507812 24.78125-13.507812h26.855469c.511719.019531 1.023438.039062 1.542969.039062h1.980469c.519531 0 1.03125-.023438 1.542969-.039062h26.082031c10.0625 0 19.324219 5.046874 24.777343 13.507812 7.53125 11.6875 11.511719 25.210938 11.511719 39.113281zm1.746094-83.367187c-7.503906-7.34375-16.945313-12.347657-27.261719-14.414063 2.800782-5.6875 4.378906-12.074219 4.378906-18.832031v-25.554688c0-.234375-.011718-.46875-.019531-.699218 0-.085938.015625-.164063.015625-.246094-.003906-.390625-.03125-.773438-.046875-1.160156 0-.042969-.003906-.085938-.003906-.128907-.089844-1.945312-.3125-3.859375-.660156-5.734375l11.980469-.03125c.367187.007813.734374.027344 1.105468.027344l1.976563.003906h.128906c.679687 0 1.363281-.011718 2.039063-.046875l26.546874-.074219h.082032c5.554687 0 10.863281 1.546876 15.429687 4.347657-7.335937 4.863281-13.71875 11.226562-18.65625 18.898437-8.605469 13.347656-14.355469 28.171875-17.035156 43.644532zm191.652344 62.148437v21.609375c-32.960938-.019531-61.296875-.113281-88.808594-.199219-26.34375-.082031-51.421875-.160156-79.597656-.179687v-63.222656c0-17.863282 5.117187-35.246094 14.792969-50.261719 5.136718-7.976563 12.804687-13.695313 21.585937-16.410157.535156-.117187 1.0625-.261718 1.578125-.453124 3.28125-.867188 6.699219-1.324219 10.191406-1.324219h24.042969v42.171875c0 6.902344 5.59375 12.496094 12.496094 12.496094 6.894531 0 12.488281-5.59375 12.488281-12.496094v-42.171875h23.074219c13.554687 0 26.019531 6.796875 33.359375 18.1875 9.679687 15.015625 14.796875 32.398437 14.796875 50.261719zm6.207031-105.792969c-4.925781-7.644531-11.285156-13.996094-18.589844-18.855468 4.574219-2.832032 9.910156-4.390626 15.496094-4.390626h.082031l26.851563.078126c.515625.019531 1.035156.039062 1.554687.042968l1.972657.007813h.128906c.476562 0 .949218-.019531 1.425781-.039063l12.488281.039063c-.460937 2.5-.714844 5.070312-.714844 7.707031v.046875c0 .082031-.003906.160156-.003906.242187v25.550782c0 6.699218 1.550782 13.039062 4.304688 18.6875-10.589844 1.976562-20.285156 7.046875-27.960938 14.558594-2.671875-15.488282-8.425781-30.316407-17.035156-43.675782zm149.367188 127.042969c-25.6875-.019531-49.585938-.09375-72.804688-.160156-19.953125-.066407-39.003906-.125-57.78125-.136719v-20.953125c0-13.902344 3.976562-27.425781 11.511719-39.109375 5.449219-8.460938 14.710937-13.511719 24.78125-13.511719h26.859375c.511718.015625 1.023437.039063 1.535156.039063h1.984375c.515625 0 1.027344-.023438 1.539063-.039063h26.082031c10.070312 0 19.332031 5.050781 24.78125 13.511719 7.535156 11.683594 11.511719 25.207031 11.511719 39.109375zm0 0" />
    <path
        d="m268.550781 563.472656-.386719-.285156c-5.496093-4.171875-13.332031-3.089844-17.503906 2.40625-4.167968 5.503906-3.089844 13.339844 2.410156 17.503906l.386719.292969c2.257813 1.710937 4.90625 2.539063 7.535157 2.539063 3.777343 0 7.507812-1.707032 9.96875-4.949219 4.167968-5.5 3.089843-13.339844-2.410157-17.507813zm0 0" />
    </svg>